<svg version="1.2" xmlns="http://www.w3.org/2000/svg" viewBox="0 0 37 37" width="37" height="37">
	<style>
		.s0 { fill: #8b3af0 } 
	</style>
	<path class="s0" d="m13.18 35.08q1.13 0.37 2.3 0.55 1.17 0.18 2.36 0.17 1.19 0 2.36-0.19 1.17-0.19 2.3-0.57c1.88-0.62 3.68-1.67 4.92-3.22 0.97-1.18 1.48-2.52 1.64-3.9 0.22-2.76-1.06-5.97-4.29-10.03l-0.01 0.01c-2.48 3.03-6.1 6.48-9.88 9.07q-1.43 1.15-2.85 2.32c-2.75 2.25-2.14 4.74 1.15 5.79q0 0 0 0zm11.26-22.99h0.01c2.27-3.23 3.45-6.16 2.93-7.65-0.59-1.52-2.01-2.62-3.53-3.22-3.45-1.37-8.22-1.69-11.73-0.41-0.54 0.2-1.13 0.51-1.14 1.15q0 0.08 0.01 0.16 0.01 0.08 0.04 0.16 0.02 0.08 0.05 0.15 0.04 0.07 0.08 0.14c0.28 0.46 0.77 0.71 1.23 0.95l0.31 0.14c4.32 1.52 8.66 4.47 11.74 8.43q0-0.01 0 0zm-5.55-1.16q-0.13-0.1-0.27-0.21-0.14-0.1-0.27-0.21-0.14-0.11-0.28-0.21-0.14-0.1-0.28-0.21-0.89-0.7-1.85-1.34c-2.16-1.35-4.28-2.13-6.3-2.28q-0.95-0.01-1.94 0.26c-2.42 0.64-4.36 2.58-5.42 4.85-1.44 3.07-1.74 7.03-0.51 10.22 2.64 5.41 9.76 3.82 16-1.47q0.57-0.54 1.12-1.09 0.55-0.55 1.09-1.11 0.55-0.56 1.08-1.13 0.53-0.58 1.04-1.16 0.39-0.47 0.74-0.93-0.45-0.53-0.93-1.05-0.48-0.51-0.97-1.01-0.5-0.5-1.01-0.98-0.52-0.47-1.05-0.93l0.01-0.01zm12.69-2.56c-0.53-0.68-1.28-1.05-1.98-0.31q-0.05 0.05-0.1 0.11-0.05 0.06-0.09 0.13-0.05 0.06-0.09 0.12-0.04 0.07-0.08 0.14-0.29 0.81-0.63 1.61-0.34 0.8-0.74 1.57-0.4 0.77-0.84 1.51-0.45 0.75-0.95 1.46c0.51 0.73 2.57 3.73 3.09 4.58q0.73 1.21 1.32 2.5c0.7 1.58 0.5 1.83 1.06 2.12 0.52 0.26 1.05-0.33 1.31-0.85 2.03-4.16 1.66-10.96-1.27-14.69v0.01q-0.01 0-0.01-0.01z"/>
</svg>